<?xml version="1.0" encoding="UTF-8"?>
<!DOCTYPE svg PUBLIC "-//W3C//DTD SVG 1.1//EN" "http://www.w3.org/Graphics/SVG/1.1/DTD/svg11.dtd">
<svg xmlns="http://www.w3.org/2000/svg" version="1.1" width="500px" height="500px" style="shape-rendering:geometricPrecision; text-rendering:geometricPrecision; image-rendering:optimizeQuality; fill-rule:evenodd; clip-rule:evenodd" xmlns:xlink="http://www.w3.org/1999/xlink">
<g><path style="opacity:0.004" fill="#fefffe" d="M 215.5,4.5 C 216.833,5.16667 216.833,5.16667 215.5,4.5 Z"/></g>
<g><path style="opacity:0.004" fill="#fefffe" d="M 334.5,8.5 C 335.833,9.16667 335.833,9.16667 334.5,8.5 Z"/></g>
<g><path style="opacity:0.004" fill="#fefffe" d="M 409.5,8.5 C 410.833,9.16667 410.833,9.16667 409.5,8.5 Z"/></g>
<g><path style="opacity:0.004" fill="#fefffe" d="M 112.5,16.5 C 113.833,17.1667 113.833,17.1667 112.5,16.5 Z"/></g>
<g><path style="opacity:0.004" fill="#fefffe" d="M 207.5,17.5 C 208.833,18.1667 208.833,18.1667 207.5,17.5 Z"/></g>
<g><path style="opacity:0.004" fill="#fefffe" d="M 185.5,19.5 C 186.833,20.1667 186.833,20.1667 185.5,19.5 Z"/></g>
<g><path style="opacity:0.004" fill="#fefffe" d="M 240.5,29.5 C 241.833,30.1667 241.833,30.1667 240.5,29.5 Z"/></g>
<g><path style="opacity:0.004" fill="#fefffe" d="M 342.5,37.5 C 343.833,38.1667 343.833,38.1667 342.5,37.5 Z"/></g>
<g><path style="opacity:0.004" fill="#fefffe" d="M 270.5,41.5 C 271.833,42.1667 271.833,42.1667 270.5,41.5 Z"/></g>
<g><path style="opacity:0.004" fill="#fefffe" d="M 403.5,53.5 C 404.833,54.1667 404.833,54.1667 403.5,53.5 Z"/></g>
<g><path style="opacity:0.004" fill="#fefffe" d="M 224.5,55.5 C 225.833,56.1667 225.833,56.1667 224.5,55.5 Z"/></g>
<g><path style="opacity:0.004" fill="#fefffe" d="M 35.5,68.5 C 36.8333,69.1667 36.8333,69.1667 35.5,68.5 Z"/></g>
<g><path style="opacity:0.004" fill="#fefffe" d="M 9.5,81.5 C 10.8333,82.1667 10.8333,82.1667 9.5,81.5 Z"/></g>
<g><path style="opacity:0.92" fill="#030101" d="M 360.5,156.5 C 329.859,109.864 286.859,91.6973 231.5,102C 188.992,112.839 158.159,138.006 139,177.5C 120.818,223.01 125.318,266.01 152.5,306.5C 153.122,307.627 153.955,308.627 155,309.5C 155.804,304.249 155.637,299.082 154.5,294C 158.651,289.111 161.484,289.945 163,296.5C 165.343,302.387 165.843,308.387 164.5,314.5C 162.513,317.598 161.513,321.098 161.5,325C 161.931,328.886 162.597,332.72 163.5,336.5C 162.167,336.833 162.167,337.167 163.5,337.5C 163.829,340.032 164.995,341.032 167,340.5C 169.879,344.27 173.546,346.937 178,348.5C 183.383,348.465 188.883,348.298 194.5,348C 195.766,347.691 196.933,347.191 198,346.5C 200.68,348.103 203.513,348.937 206.5,349C 204.833,347.833 203.167,346.667 201.5,345.5C 202.328,344.585 203.328,343.919 204.5,343.5C 207.853,345.177 210.853,347.343 213.5,350C 215.833,350.667 218.167,350.667 220.5,350C 214.767,346.295 211.6,341.129 211,334.5C 211.36,332.579 212.194,330.912 213.5,329.5C 220.007,335.011 225.007,341.678 228.5,349.5C 224.595,352.89 220.262,355.723 215.5,358C 217.619,358.342 217.953,359.175 216.5,360.5C 215.167,360.5 213.833,360.5 212.5,360.5C 211.5,359.167 210.5,359.167 209.5,360.5C 204.313,360.373 203.313,362.206 206.5,366C 201.703,367.135 200.037,365.468 201.5,361C 200.451,360.508 199.451,360.674 198.5,361.5C 198.167,360.833 197.833,360.167 197.5,359.5C 191.69,364.408 185.024,367.075 177.5,367.5C 177.343,366.127 177.51,364.793 178,363.5C 180.996,361.267 183.829,358.934 186.5,356.5C 190.286,355.305 190.286,354.638 186.5,354.5C 185.726,353.853 184.726,353.52 183.5,353.5C 173.767,356.328 164.1,356.162 154.5,353C 152.224,351.97 151.557,350.47 152.5,348.5C 156.676,346.979 161.009,346.145 165.5,346C 164.956,345.283 164.289,344.783 163.5,344.5C 157.161,342.162 151.161,338.995 145.5,335C 142.144,331.947 139.81,328.28 138.5,324C 141.036,321.594 142.369,318.927 142.5,316C 109.861,273.076 103.028,226.243 122,175.5C 149.504,119.188 194.67,90.8547 257.5,90.5C 317.937,97.7983 358.771,129.798 380,186.5C 385.043,205.226 387.377,222.893 387,239.5C 384.923,259.759 378.59,279.426 368,298.5C 367.097,297.299 365.931,296.465 364.5,296C 383.01,263.759 387.51,229.593 378,193.5C 374.884,182.673 370.218,171.673 364,160.5C 363.051,158.907 361.885,157.574 360.5,156.5 Z M 294.5,282.5 C 295.5,282.833 296.167,283.5 296.5,284.5C 295.833,284.5 295.167,284.5 294.5,284.5C 294.5,283.833 294.5,283.167 294.5,282.5 Z M 300.5,290.5 C 301.167,290.5 301.833,290.5 302.5,290.5C 302.833,291.167 303.167,291.833 303.5,292.5C 301.973,292.573 300.973,291.906 300.5,290.5 Z M 158.5,303.5 C 159.447,305.957 160.781,308.291 162.5,310.5C 161.699,312.353 161.365,314.019 161.5,315.5C 159.741,311.707 158.741,307.707 158.5,303.5 Z M 145.5,320.5 C 147.833,322.167 149.833,324.167 151.5,326.5C 149.405,325.588 147.405,324.421 145.5,323C 144.402,322.23 144.402,321.397 145.5,320.5 Z M 146.5,329.5 C 150.363,330.694 153.363,333.027 155.5,336.5C 151.949,334.889 148.949,332.556 146.5,329.5 Z M 213.5,334.5 C 216.85,336.992 219.35,339.659 221,342.5C 222.289,344.055 222.956,345.721 223,347.5C 218.43,344.111 215.264,339.777 213.5,334.5 Z M 191.5,358.5 C 190.341,360.25 188.674,361.25 186.5,361.5C 187.659,359.75 189.326,358.75 191.5,358.5 Z"/></g>
<g><path style="opacity:0.004" fill="#fefffe" d="M 490.5,104.5 C 491.833,105.167 491.833,105.167 490.5,104.5 Z"/></g>
<g><path style="opacity:0.917" fill="#010000" d="M 300.5,287.5 C 300.5,286.833 300.167,286.5 299.5,286.5C 299.5,285.833 299.167,285.5 298.5,285.5C 298.158,284.662 297.492,284.328 296.5,284.5C 296.167,283.5 295.5,282.833 294.5,282.5C 294.5,283.167 294.5,283.833 294.5,284.5C 293.082,282.813 291.749,280.98 290.5,279C 288.365,278.395 288.031,278.895 289.5,280.5C 287.234,280.859 285.401,280.192 284,278.5C 281.1,283.783 279.766,283.116 280,276.5C 279.683,274.699 279.016,274.366 278,275.5C 276.956,269.958 275.123,264.291 272.5,258.5C 272.709,257.914 273.043,257.414 273.5,257C 271.288,254.737 269.622,252.07 268.5,249C 269.634,247.984 269.301,247.317 267.5,247C 270.167,246.333 270.167,245.667 267.5,245C 267.833,244.667 268.167,244.333 268.5,244C 267.527,241.365 265.86,239.365 263.5,238C 264.167,237.667 264.833,237.333 265.5,237C 259.743,234.623 254.077,231.956 248.5,229C 241.097,223.936 233.43,219.27 225.5,215C 217.876,213.064 211.709,215.23 207,221.5C 199.751,232.688 196.251,244.688 196.5,257.5C 195.07,257.421 193.736,257.754 192.5,258.5C 192.198,225.982 194.698,193.649 200,161.5C 202.56,154.04 206.393,147.373 211.5,141.5C 212.251,142.376 212.751,143.376 213,144.5C 213.333,142.833 213.667,141.167 214,139.5C 218.408,135.257 223.241,131.591 228.5,128.5C 229.245,126.253 230.578,124.42 232.5,123C 240.327,118.891 248.661,116.724 257.5,116.5C 265.094,118.123 272.76,119.456 280.5,120.5C 284.063,120.154 287.563,119.487 291,118.5C 292.605,119.101 293.938,120.101 295,121.5C 298.713,133.718 298.046,145.718 293,157.5C 293.332,147.824 290.998,138.824 286,130.5C 283.524,128.185 281.191,128.518 279,131.5C 267.945,145.917 261.111,161.917 258.5,179.5C 260.833,185.167 264.833,189.167 270.5,191.5C 271.386,192.325 271.719,193.325 271.5,194.5C 269.176,194.662 267.509,195.828 266.5,198C 267.82,201.377 268.82,204.877 269.5,208.5C 276.991,213.459 281.491,220.459 283,229.5C 297.657,247.133 304.99,267.466 305,290.5C 303.871,288.859 302.371,287.859 300.5,287.5 Z M 294.5,282.5 C 295.5,282.833 296.167,283.5 296.5,284.5C 295.833,284.5 295.167,284.5 294.5,284.5C 294.5,283.833 294.5,283.167 294.5,282.5 Z"/></g>
<g><path style="opacity:0.004" fill="#fefffe" d="M 413.5,142.5 C 414.833,143.167 414.833,143.167 413.5,142.5 Z"/></g>
<g><path style="opacity:0.004" fill="#fefffe" d="M 100.5,143.5 C 101.833,144.167 101.833,144.167 100.5,143.5 Z"/></g>
<g><path style="opacity:0.004" fill="#fefffe" d="M 438.5,155.5 C 439.833,156.167 439.833,156.167 438.5,155.5 Z"/></g>
<g><path style="opacity:0.004" fill="#000000" d="M 360.5,156.5 C 359.833,157.167 359.833,157.167 360.5,156.5 Z"/></g>
<g><path style="opacity:0.004" fill="#fefffe" d="M 481.5,165.5 C 482.833,166.167 482.833,166.167 481.5,165.5 Z"/></g>
<g><path style="opacity:0.004" fill="#fefffe" d="M 196.5,166.5 C 197.833,167.167 197.833,167.167 196.5,166.5 Z"/></g>
<g><path style="opacity:0.004" fill="#fefffe" d="M 106.5,173.5 C 107.833,174.167 107.833,174.167 106.5,173.5 Z"/></g>
<g><path style="opacity:0.004" fill="#fefffe" d="M 92.5,176.5 C 93.8333,177.167 93.8333,177.167 92.5,176.5 Z"/></g>
<g><path style="opacity:0.004" fill="#fefffe" d="M 350.5,179.5 C 351.833,180.167 351.833,180.167 350.5,179.5 Z"/></g>
<g><path style="opacity:0.004" fill="#fefffe" d="M 372.5,187.5 C 373.833,188.167 373.833,188.167 372.5,187.5 Z"/></g>
<g><path style="opacity:0.004" fill="#fefffe" d="M 161.5,198.5 C 162.833,199.167 162.833,199.167 161.5,198.5 Z"/></g>
<g><path style="opacity:0.004" fill="#fefffe" d="M 24.5,205.5 C 25.8333,206.167 25.8333,206.167 24.5,205.5 Z"/></g>
<g><path style="opacity:0.004" fill="#fefffe" d="M 70.5,210.5 C 71.8333,211.167 71.8333,211.167 70.5,210.5 Z"/></g>
<g><path style="opacity:0.004" fill="#fefffe" d="M 49.5,213.5 C 50.8333,214.167 50.8333,214.167 49.5,213.5 Z"/></g>
<g><path style="opacity:0.004" fill="#fefffe" d="M 406.5,221.5 C 407.833,222.167 407.833,222.167 406.5,221.5 Z"/></g>
<g><path style="opacity:0.004" fill="#fefffe" d="M 208.5,229.5 C 209.833,230.167 209.833,230.167 208.5,229.5 Z"/></g>
<g><path style="opacity:0.004" fill="#fefffe" d="M 376.5,238.5 C 377.833,239.167 377.833,239.167 376.5,238.5 Z"/></g>
<g><path style="opacity:0.004" fill="#fefffe" d="M 168.5,240.5 C 169.833,241.167 169.833,241.167 168.5,240.5 Z"/></g>
<g><path style="opacity:0.004" fill="#fefffe" d="M 455.5,241.5 C 456.833,242.167 456.833,242.167 455.5,241.5 Z"/></g>
<g><path style="opacity:0.004" fill="#fefffe" d="M 150.5,243.5 C 151.833,244.167 151.833,244.167 150.5,243.5 Z"/></g>
<g><path style="opacity:0.004" fill="#fefffe" d="M 453.5,249.5 C 454.833,250.167 454.833,250.167 453.5,249.5 Z"/></g>
<g><path style="opacity:0.004" fill="#fefffe" d="M 405.5,250.5 C 406.833,251.167 406.833,251.167 405.5,250.5 Z"/></g>
<g><path style="opacity:0.004" fill="#fefffe" d="M 17.5,254.5 C 18.8333,255.167 18.8333,255.167 17.5,254.5 Z"/></g>
<g><path style="opacity:0.834" fill="#020000" d="M 196.5,257.5 C 197.495,260.264 199.662,262.597 203,264.5C 204.183,273.156 200.683,275.99 192.5,273C 189.178,267.922 190.178,263.922 195.5,261C 194.833,260.667 194.167,260.333 193.5,260C 194.571,259.148 195.571,258.315 196.5,257.5 Z"/></g>
<g><path style="opacity:0.004" fill="#fefffe" d="M 256.5,259.5 C 257.833,260.167 257.833,260.167 256.5,259.5 Z"/></g>
<g><path style="opacity:0.893" fill="#030000" d="M 177.5,260.5 C 184.142,260.64 186.976,263.973 186,270.5C 183.839,274.124 180.672,275.291 176.5,274C 171.645,269.213 171.978,264.713 177.5,260.5 Z"/></g>
<g><path style="opacity:0.905" fill="#030101" d="M 354.5,274.5 C 360.364,272.955 363.698,275.121 364.5,281C 363.685,287.04 360.352,289.04 354.5,287C 349.248,282.891 349.248,278.724 354.5,274.5 Z"/></g>
<g><path style="opacity:0.799" fill="#050000" d="M 191.5,277.5 C 193.144,277.286 194.644,277.62 196,278.5C 196.667,282.167 196.667,285.833 196,289.5C 191.948,286.538 190.448,282.538 191.5,277.5 Z"/></g>
<g><path style="opacity:0.004" fill="#fefffe" d="M 216.5,278.5 C 217.833,279.167 217.833,279.167 216.5,278.5 Z"/></g>
<g><path style="opacity:0.004" fill="#fefffe" d="M 250.5,279.5 C 251.833,280.167 251.833,280.167 250.5,279.5 Z"/></g>
<g><path style="opacity:0.008" fill="#000000" d="M 289.5,280.5 C 290.833,281.167 290.833,281.167 289.5,280.5 Z"/></g>
<g><path style="opacity:0.915" fill="#020000" d="M 295.5,286.5 C 295.5,287.167 295.833,287.5 296.5,287.5C 296.5,288.167 296.833,288.5 297.5,288.5C 297.842,289.338 298.508,289.672 299.5,289.5C 299.5,290.167 299.833,290.5 300.5,290.5C 300.973,291.906 301.973,292.573 303.5,292.5C 310.801,298.969 317.635,305.969 324,313.5C 324.333,312.833 324.667,312.167 325,311.5C 326.039,312.71 327.206,313.71 328.5,314.5C 328.427,316.027 329.094,317.027 330.5,317.5C 330.402,319.553 331.069,321.22 332.5,322.5C 332.815,326.371 332.482,330.038 331.5,333.5C 331.737,329.727 331.237,326.06 330,322.5C 332.544,336.618 326.711,344.451 312.5,346C 321.72,346.561 321.72,347.394 312.5,348.5C 310.833,348.167 309.167,347.833 307.5,347.5C 308.025,346.808 308.692,346.308 309.5,346C 302.62,345.488 296.12,343.655 290,340.5C 279.53,344.662 268.696,346.162 257.5,345C 254.888,344.361 252.554,343.194 250.5,341.5C 243.696,357.964 231.696,368.964 214.5,374.5C 212.339,371.511 210.672,368.178 209.5,364.5C 211.904,363.157 214.238,361.823 216.5,360.5C 242.565,348.916 247.898,330.916 232.5,306.5C 235.339,304.58 238.339,302.913 241.5,301.5C 243.718,302.924 245.218,304.924 246,307.5C 248.727,313.679 251.06,320.013 253,326.5C 254.585,331.299 257.918,333.966 263,334.5C 264.667,333.167 266.333,333.167 268,334.5C 271.915,333.95 275.748,333.117 279.5,332C 278.956,331.283 278.289,330.783 277.5,330.5C 275.814,327.128 274.147,323.795 272.5,320.5C 270.615,308.439 274.948,299.605 285.5,294C 283.983,292.315 282.316,290.815 280.5,289.5C 282.123,286.379 284.29,283.712 287,281.5C 289.955,283.057 292.788,284.724 295.5,286.5 Z M 295.5,304.5 C 293.167,304.5 290.833,304.5 288.5,304.5C 290.833,301.833 293.167,301.833 295.5,304.5 Z M 288.5,304.5 C 288.5,304.833 288.5,305.167 288.5,305.5C 290.735,305.205 292.735,305.539 294.5,306.5C 290.866,305.927 288.366,307.594 287,311.5C 286.889,315.346 287.723,319.012 289.5,322.5C 288.833,322.167 288.167,321.833 287.5,321.5C 287.152,319.287 286.319,317.287 285,315.5C 284.517,316.448 284.351,317.448 284.5,318.5C 282.191,314.615 282.357,310.615 285,306.5C 285.816,305.177 286.983,304.511 288.5,304.5 Z M 295.5,304.5 C 297.5,304.5 298.5,305.5 298.5,307.5C 297.833,307.167 297.167,306.833 296.5,306.5C 296.167,305.833 295.833,305.167 295.5,304.5 Z M 294.5,306.5 C 295.167,306.5 295.833,306.5 296.5,306.5C 296.709,307.922 297.209,309.255 298,310.5C 298.483,309.552 298.649,308.552 298.5,307.5C 301.469,315.942 298.969,322.609 291,327.5C 288.926,326.928 287.76,325.595 287.5,323.5C 288.492,323.672 289.158,323.338 289.5,322.5C 290.117,322.611 290.617,322.944 291,323.5C 292.039,322.29 293.206,321.29 294.5,320.5C 297.079,315.804 297.079,311.137 294.5,306.5 Z M 310.5,315.5 C 317.355,320.319 319.355,326.486 316.5,334C 311.382,334.888 306.382,334.555 301.5,333C 307.255,328.658 310.255,322.825 310.5,315.5 Z M 285.5,320.5 C 286.167,320.833 286.833,321.167 287.5,321.5C 287.5,322.167 287.5,322.833 287.5,323.5C 286.094,323.027 285.427,322.027 285.5,320.5 Z"/></g>
<g><path style="opacity:0.008" fill="#000000" d="M 294.5,284.5 C 295.167,284.5 295.833,284.5 296.5,284.5C 296.842,285.338 297.508,285.672 298.5,285.5C 299.167,285.5 299.5,285.833 299.5,286.5C 300.167,286.5 300.5,286.833 300.5,287.5C 301.167,288.5 301.833,289.5 302.5,290.5C 301.833,290.5 301.167,290.5 300.5,290.5C 299.833,290.5 299.5,290.167 299.5,289.5C 299.158,288.662 298.492,288.328 297.5,288.5C 296.833,288.5 296.5,288.167 296.5,287.5C 295.833,287.5 295.5,287.167 295.5,286.5C 295.167,285.833 294.833,285.167 294.5,284.5 Z"/></g>
<g><path style="opacity:0.004" fill="#fefffe" d="M 477.5,285.5 C 478.833,286.167 478.833,286.167 477.5,285.5 Z"/></g>
<g><path style="opacity:0.911" fill="#020101" d="M 169.5,338.5 C 169.167,337.5 168.5,336.833 167.5,336.5C 165.397,330.598 165.064,324.598 166.5,318.5C 165.147,317.476 164.48,316.143 164.5,314.5C 165.239,314.369 165.906,314.536 166.5,315C 165.304,315.654 165.304,316.154 166.5,316.5C 169.523,309.122 174.023,302.788 180,297.5C 180.163,295.613 179.329,294.113 177.5,293C 179.628,289.87 182.128,287.037 185,284.5C 196.437,292.259 204.437,302.592 209,315.5C 209.753,320.375 209.586,325.208 208.5,330C 208.667,330.5 208.833,331 209,331.5C 209.423,330.044 210.256,329.544 211.5,330C 210.853,331.609 210.02,333.109 209,334.5C 208.667,333.833 208.333,333.167 208,332.5C 201.614,343.598 192.114,347.431 179.5,344C 175.689,342.93 172.356,341.097 169.5,338.5 Z M 187.5,302.5 C 196.449,308.064 200.282,316.064 199,326.5C 194.491,333.435 188.324,335.268 180.5,332C 177.684,329.868 176.351,327.035 176.5,323.5C 177.806,315.219 181.473,308.219 187.5,302.5 Z"/></g>
<g><path style="opacity:0.004" fill="#000000" d="M 192.5,288.5 C 193.833,289.167 193.833,289.167 192.5,288.5 Z"/></g>
<g><path style="opacity:0.004" fill="#000000" d="M 364.5,299.5 C 365.833,300.167 365.833,300.167 364.5,299.5 Z"/></g>
<g><path style="opacity:0.924" fill="#020101" d="M 362.5,301.5 C 363.675,301.281 364.675,301.614 365.5,302.5C 381.904,333.787 374.238,356.953 342.5,372C 340.246,373.15 337.913,373.484 335.5,373C 334.167,370 332.833,367 331.5,364C 344.118,360.612 353.952,353.445 361,342.5C 365.087,329.432 362.921,317.432 354.5,306.5C 357.231,304.808 359.898,303.142 362.5,301.5 Z"/></g>
<g><path style="opacity:0.005" fill="#000000" d="M 152.5,306.5 C 152.281,305.325 152.614,304.325 153.5,303.5C 154.798,305.052 154.465,306.052 152.5,306.5 Z"/></g>
<g><path style="opacity:0.005" fill="#000000" d="M 288.5,305.5 C 288.5,305.167 288.5,304.833 288.5,304.5C 290.833,304.5 293.167,304.5 295.5,304.5C 295.833,305.167 296.167,305.833 296.5,306.5C 295.833,306.5 295.167,306.5 294.5,306.5C 292.735,305.539 290.735,305.205 288.5,305.5 Z"/></g>
<g><path style="opacity:0.005" fill="#000000" d="M 296.5,306.5 C 297.167,306.833 297.833,307.167 298.5,307.5C 298.649,308.552 298.483,309.552 298,310.5C 297.209,309.255 296.709,307.922 296.5,306.5 Z"/></g>
<g><path style="opacity:0.794" fill="#030101" d="M 294.5,306.5 C 297.079,311.137 297.079,315.804 294.5,320.5C 293.206,321.29 292.039,322.29 291,323.5C 290.617,322.944 290.117,322.611 289.5,322.5C 287.723,319.012 286.889,315.346 287,311.5C 288.366,307.594 290.866,305.927 294.5,306.5 Z"/></g>
<g><path style="opacity:0.004" fill="#fefffe" d="M 434.5,307.5 C 435.833,308.167 435.833,308.167 434.5,307.5 Z"/></g>
<g><path style="opacity:0.005" fill="#000000" d="M 354.5,309.5 C 355.848,310.527 356.348,311.86 356,313.5C 354.812,312.437 354.312,311.103 354.5,309.5 Z"/></g>
<g><path style="opacity:0.004" fill="#000000" d="M 166.5,310.5 C 167.525,310.897 167.692,311.563 167,312.5C 166.536,311.906 166.369,311.239 166.5,310.5 Z"/></g>
<g><path style="opacity:0.805" fill="#040101" d="M 286.5,365.5 C 286.5,365.833 286.5,366.167 286.5,366.5C 284.158,366.775 284.158,367.608 286.5,369C 284.941,370.631 282.941,371.464 280.5,371.5C 275.55,371.262 270.883,370.096 266.5,368C 256.5,367.667 246.5,367.333 236.5,367C 240.043,364.158 243.21,360.991 246,357.5C 246.5,358.5 247,359.5 247.5,360.5C 248.5,361.833 249.5,361.833 250.5,360.5C 251.903,356.024 254.069,352.024 257,348.5C 259.873,349.414 260.04,350.914 257.5,353C 258,353.167 258.5,353.333 259,353.5C 260.289,351.915 261.789,350.581 263.5,349.5C 265.631,350.612 265.631,352.112 263.5,354C 263.833,354.167 264.167,354.333 264.5,354.5C 267.384,352.376 270.051,350.042 272.5,347.5C 274.617,348.773 276.784,348.773 279,347.5C 279.5,347.667 280,347.833 280.5,348C 276.433,349.909 276.766,350.742 281.5,350.5C 285.348,349.655 288.515,347.655 291,344.5C 293.003,346.801 294.837,346.801 296.5,344.5C 297.5,345 298.5,345.5 299.5,346C 296.673,346.701 294.006,347.701 291.5,349C 293.931,349.252 296.265,348.752 298.5,347.5C 300.115,348.154 301.782,348.654 303.5,349C 302.167,349.667 300.833,350.333 299.5,351C 300.167,351.167 300.833,351.333 301.5,351.5C 308.129,350.114 314.796,348.948 321.5,348C 325.638,345.685 329.305,342.852 332.5,339.5C 335.125,338.534 335.125,337.534 332.5,336.5C 333.074,334.941 333.74,333.441 334.5,332C 333.22,329.868 333.22,327.702 334.5,325.5C 334.058,324.261 333.391,323.261 332.5,322.5C 332.598,320.447 331.931,318.78 330.5,317.5C 330.573,315.973 329.906,314.973 328.5,314.5C 327.272,311.925 325.605,309.592 323.5,307.5C 324.002,306.479 324.668,306.312 325.5,307C 328.04,309.205 330.207,311.705 332,314.5C 332.091,306.802 333.758,299.469 337,292.5C 339.19,289.751 340.857,290.085 342,293.5C 342.167,296.5 342.333,299.5 342.5,302.5C 341.309,312.054 340.143,320.054 339,326.5C 339.333,326.833 339.667,327.167 340,327.5C 344.534,323.301 348.701,318.801 352.5,314C 353.965,313.399 354.965,313.899 355.5,315.5C 354.687,316.814 353.687,317.981 352.5,319C 353.167,319.333 353.833,319.667 354.5,320C 349.603,322.889 345.27,326.555 341.5,331C 342.167,331.667 342.833,331.667 343.5,331C 347.661,326.307 352.661,323.14 358.5,321.5C 359.042,326.292 357.375,330.459 353.5,334C 346.924,338.787 339.924,342.787 332.5,346C 336.894,346.303 341.227,346.97 345.5,348C 346.727,349.587 346.394,350.921 344.5,352C 339.448,354.43 334.115,355.596 328.5,355.5C 323.121,354.981 317.788,354.481 312.5,354C 317.627,354.474 317.627,355.474 312.5,357C 316.167,359.333 319.167,362.333 321.5,366C 320.601,367.236 319.434,368.07 318,368.5C 311.46,366.146 305.293,363.146 299.5,359.5C 298.263,359.556 297.263,360.056 296.5,361C 297.38,362.356 297.714,363.856 297.5,365.5C 293.833,365.5 290.167,365.5 286.5,365.5 Z M 335.5,307.5 C 339.165,309.611 339.499,312.278 336.5,315.5C 335.52,312.914 335.187,310.247 335.5,307.5 Z M 338.5,297.5 C 339.776,298.386 339.776,299.386 338.5,300.5C 337.913,299.767 337.913,298.767 338.5,297.5 Z M 352.5,328.5 C 350.037,332.3 346.704,334.967 342.5,336.5C 345.095,332.874 348.428,330.208 352.5,328.5 Z M 334.5,349.5 C 335.473,349.987 336.473,350.487 337.5,351C 333.5,351.667 329.5,351.667 325.5,351C 328.695,350.819 331.695,350.319 334.5,349.5 Z M 258.5,355.5 C 255.528,359.567 255.028,359.234 257,354.5C 257.383,355.056 257.883,355.389 258.5,355.5 Z M 287.5,355.5 C 289.288,354.378 291.288,354.211 293.5,355C 291.598,356.796 289.598,356.963 287.5,355.5 Z M 270.5,355.5 C 274.377,355.231 276.544,356.898 277,360.5C 273.602,360.856 270.102,360.356 266.5,359C 266.167,358.667 265.833,358.333 265.5,358C 267.315,357.243 268.981,356.41 270.5,355.5 Z M 281.5,356.5 C 283.312,356.771 284.978,357.438 286.5,358.5C 284.422,359.307 282.755,358.641 281.5,356.5 Z M 306.5,358.5 C 307.756,358.461 308.756,358.961 309.5,360C 308.002,360.585 307.002,360.085 306.5,358.5 Z M 286.5,365.5 C 284.801,365.66 283.134,365.494 281.5,365C 283.696,363.392 285.362,363.559 286.5,365.5 Z"/></g>
<g><path style="opacity:0.004" fill="#fefffe" d="M 415.5,312.5 C 416.833,313.167 416.833,313.167 415.5,312.5 Z"/></g>
<g><path style="opacity:0.007" fill="#000000" d="M 287.5,321.5 C 286.833,321.167 286.167,320.833 285.5,320.5C 285.672,319.508 285.338,318.842 284.5,318.5C 284.351,317.448 284.517,316.448 285,315.5C 286.319,317.287 287.152,319.287 287.5,321.5 Z"/></g>
<g><path style="opacity:0.004" fill="#fefffe" d="M 9.5,319.5 C 10.8333,320.167 10.8333,320.167 9.5,319.5 Z"/></g>
<g><path style="opacity:0.004" fill="#000000" d="M 163.5,320.5 C 164.833,321.167 164.833,321.167 163.5,320.5 Z"/></g>
<g><path style="opacity:0.004" fill="#000000" d="M 272.5,320.5 C 271.833,321.167 271.833,321.167 272.5,320.5 Z"/></g>
<g><path style="opacity:0.004" fill="#000000" d="M 359.5,320.5 C 360.833,321.167 360.833,321.167 359.5,320.5 Z"/></g>
<g><path style="opacity:0.007" fill="#000000" d="M 287.5,321.5 C 288.167,321.833 288.833,322.167 289.5,322.5C 289.158,323.338 288.492,323.672 287.5,323.5C 287.5,322.833 287.5,322.167 287.5,321.5 Z"/></g>
<g><path style="opacity:0.006" fill="#000000" d="M 163.5,322.5 C 164.634,324.966 164.801,327.633 164,330.5C 163.058,327.729 162.892,325.062 163.5,322.5 Z"/></g>
<g><path style="opacity:0.004" fill="#fefffe" d="M 381.5,322.5 C 382.833,323.167 382.833,323.167 381.5,322.5 Z"/></g>
<g><path style="opacity:0.004" fill="#fefffe" d="M 385.5,323.5 C 386.833,324.167 386.833,324.167 385.5,323.5 Z"/></g>
<g><path style="opacity:0.004" fill="#fefffe" d="M 484.5,323.5 C 485.833,324.167 485.833,324.167 484.5,323.5 Z"/></g>
<g><path style="opacity:0.004" fill="#000000" d="M 277.5,330.5 C 276.923,331.773 276.257,331.773 275.5,330.5C 275.97,329.537 276.637,329.537 277.5,330.5 Z"/></g>
<g><path style="opacity:0.004" fill="#fefffe" d="M 470.5,329.5 C 471.833,330.167 471.833,330.167 470.5,329.5 Z"/></g>
<g><path style="opacity:0.004" fill="#000000" d="M 164.5,332.5 C 165.525,332.897 165.692,333.563 165,334.5C 164.536,333.906 164.369,333.239 164.5,332.5 Z"/></g>
<g><path style="opacity:0.004" fill="#000000" d="M 331.5,333.5 C 330.833,334.167 330.833,334.167 331.5,333.5 Z"/></g>
<g><path style="opacity:0.075" fill="#000000" d="M 163.5,336.5 C 164.833,337.167 164.833,337.167 163.5,336.5 Z"/></g>
<g><path style="opacity:0.004" fill="#000000" d="M 167.5,336.5 C 166.833,337.167 166.833,337.167 167.5,336.5 Z"/></g>
<g><path style="opacity:0.004" fill="#000000" d="M 169.5,338.5 C 169.489,341.001 168.822,341.168 167.5,339C 168.094,338.536 168.761,338.369 169.5,338.5 Z"/></g>
<g><path style="opacity:0.939" fill="#070000" d="M 230.5,336.5 C 236.792,338.462 237.125,341.462 231.5,345.5C 230.516,342.572 230.183,339.572 230.5,336.5 Z"/></g>
<g><path style="opacity:0.063" fill="#000000" d="M 332.5,339.5 C 331.833,338.167 331.833,338.167 332.5,339.5 Z"/></g>
<g><path style="opacity:0.004" fill="#000000" d="M 172.5,342.5 C 173.833,343.167 173.833,343.167 172.5,342.5 Z"/></g>
<g><path style="opacity:0.006" fill="#000000" d="M 163.5,344.5 C 162.399,345.598 161.066,345.765 159.5,345C 160.793,344.51 162.127,344.343 163.5,344.5 Z"/></g>
<g><path style="opacity:0.006" fill="#000000" d="M 175.5,345.5 C 175.735,344.903 176.235,344.57 177,344.5C 178.5,345 180,345.5 181.5,346C 179.402,346.678 177.402,346.511 175.5,345.5 Z"/></g>
<g><path style="opacity:0.004" fill="#000000" d="M 196.5,344.5 C 197.833,345.167 197.833,345.167 196.5,344.5 Z"/></g>
<g><path style="opacity:0.005" fill="#000000" d="M 196.5,345.5 C 195.749,346.573 194.749,346.74 193.5,346C 194.448,345.517 195.448,345.351 196.5,345.5 Z"/></g>
<g><path style="opacity:0.004" fill="#000000" d="M 320.5,345.5 C 321.833,346.167 321.833,346.167 320.5,345.5 Z"/></g>
<g><path style="opacity:0.004" fill="#000000" d="M 186.5,347.5 C 186.897,346.475 187.563,346.308 188.5,347C 187.906,347.464 187.239,347.631 186.5,347.5 Z"/></g>
<g><path style="opacity:0.004" fill="#000000" d="M 263.5,347.5 C 264.251,346.427 265.251,346.26 266.5,347C 265.552,347.483 264.552,347.649 263.5,347.5 Z"/></g>
<g><path style="opacity:0.004" fill="#000000" d="M 272.5,347.5 C 271.127,347.657 269.793,347.49 268.5,347C 270.066,346.235 271.399,346.402 272.5,347.5 Z"/></g>
<g><path style="opacity:0.004" fill="#fefffe" d="M 213.5,347.5 C 214.833,348.167 214.833,348.167 213.5,347.5 Z"/></g>
<g><path style="opacity:0.004" fill="#000000" d="M 266.5,350.5 C 267.833,351.167 267.833,351.167 266.5,350.5 Z"/></g>
<g><path style="opacity:0.004" fill="#000000" d="M 226.5,352.5 C 227.833,353.167 227.833,353.167 226.5,352.5 Z"/></g>
<g><path style="opacity:0.004" fill="#000000" d="M 226.5,353.5 C 225.833,354.167 225.833,354.167 226.5,353.5 Z"/></g>
<g><path style="opacity:0.004" fill="#fefffe" d="M 34.5,354.5 C 35.8333,355.167 35.8333,355.167 34.5,354.5 Z"/></g>
<g><path style="opacity:0.004" fill="#fefffe" d="M 57.5,354.5 C 58.8333,355.167 58.8333,355.167 57.5,354.5 Z"/></g>
<g><path style="opacity:0.005" fill="#000000" d="M 186.5,354.5 C 186.5,355.167 186.5,355.833 186.5,356.5C 182.711,355.404 182.711,354.737 186.5,354.5 Z"/></g>
<g><path style="opacity:0.007" fill="#000000" d="M 209.5,360.5 C 210.5,360.5 211.5,360.5 212.5,360.5C 210.821,362.175 208.821,363.008 206.5,363C 207.571,362.148 208.571,361.315 209.5,360.5 Z"/></g>
<g><path style="opacity:0.007" fill="#000000" d="M 298.5,360.5 C 301.001,360.511 301.168,361.178 299,362.5C 298.536,361.906 298.369,361.239 298.5,360.5 Z"/></g>
<g><path style="opacity:0.004" fill="#000000" d="M 207.5,364.5 C 208.833,365.167 208.833,365.167 207.5,364.5 Z"/></g>
<g><path style="opacity:0.004" fill="#000000" d="M 286.5,366.5 C 287.833,367.167 287.833,367.167 286.5,366.5 Z"/></g>
<g><path style="opacity:0.004" fill="#fefffe" d="M 227.5,375.5 C 226.833,374.167 226.833,374.167 227.5,375.5 Z"/></g>
<g><path style="opacity:0.004" fill="#fefffe" d="M 322.5,374.5 C 323.833,375.167 323.833,375.167 322.5,374.5 Z"/></g>
<g><path style="opacity:0.004" fill="#fefffe" d="M 138.5,375.5 C 139.833,376.167 139.833,376.167 138.5,375.5 Z"/></g>
<g><path style="opacity:0.805" fill="#020000" d="M 227.5,375.5 C 229.5,375.5 231.5,375.5 233.5,375.5C 233.928,387.833 234.428,400.167 235,412.5C 235.374,413.416 235.874,414.25 236.5,415C 240.558,415.767 244.558,415.6 248.5,414.5C 250.27,413.18 250.603,411.68 249.5,410C 250.167,409.667 250.833,409.333 251.5,409C 250.484,408.481 249.818,407.647 249.5,406.5C 250.472,404.695 251.639,403.028 253,401.5C 254.6,402.866 256.433,403.866 258.5,404.5C 257.771,406.976 257.104,409.476 256.5,412C 256.759,413.261 257.426,414.261 258.5,415C 267.957,416.516 276.957,415.183 285.5,411C 283.772,409.274 281.772,407.941 279.5,407C 280.5,406.667 281.5,406.333 282.5,406C 278.216,406.426 273.882,406.26 269.5,405.5C 269.587,402.402 269.087,402.068 268,404.5C 267.175,402.299 267.675,400.466 269.5,399C 273.5,398.333 277.5,398.333 281.5,399C 286.229,400.782 290.729,402.949 295,405.5C 295.333,405.167 295.667,404.833 296,404.5C 297.067,405.191 298.234,405.691 299.5,406C 300.009,408.57 301.009,410.903 302.5,413C 301.956,413.717 301.289,414.217 300.5,414.5C 304.249,417.045 308.082,417.045 312,414.5C 312.37,401.496 312.203,388.496 311.5,375.5C 313.5,375.5 315.5,375.5 317.5,375.5C 317.946,386.872 318.612,398.206 319.5,409.5C 319.379,418.455 314.879,422.789 306,422.5C 302.765,422.418 299.598,421.918 296.5,421C 294.597,418.595 292.264,416.761 289.5,415.5C 280.029,421.694 269.696,423.861 258.5,422C 256.579,421.64 254.912,420.806 253.5,419.5C 252.304,419.846 252.304,420.346 253.5,421C 246.47,422.838 239.47,422.838 232.5,421C 230.513,419.681 229.346,417.848 229,415.5C 227.86,402.19 227.36,388.857 227.5,375.5 Z M 285.5,407.5 C 288.293,407.74 288.793,408.74 287,410.5C 286.487,409.473 285.987,408.473 285.5,407.5 Z M 300.5,414.5 C 299.244,414.539 298.244,414.039 297.5,413C 298.998,412.415 299.998,412.915 300.5,414.5 Z"/></g>
<g><path style="opacity:0.845" fill="#020000" d="M 326.5,375.5 C 328.5,375.5 330.5,375.5 332.5,375.5C 333.217,391.156 333.55,406.823 333.5,422.5C 331.459,422.854 329.626,422.854 328,422.5C 327.139,406.843 326.639,391.176 326.5,375.5 Z"/></g>
<g><path style="opacity:0.004" fill="#fefffe" d="M 3.5,377.5 C 4.83333,378.167 4.83333,378.167 3.5,377.5 Z"/></g>
<g><path style="opacity:0.715" fill="#030100" d="M 204.5,378.5 C 208.718,379.021 210.551,381.355 210,385.5C 209.667,385.167 209.333,384.833 209,384.5C 207,387.167 205,387.167 203,384.5C 202.252,382.16 202.752,380.16 204.5,378.5 Z"/></g>
<g><path style="opacity:0.004" fill="#000000" d="M 309.5,378.5 C 310.833,379.167 310.833,379.167 309.5,378.5 Z"/></g>
<g><path style="opacity:0.747" fill="#040000" d="M 214.5,378.5 C 219.692,381.345 219.692,384.012 214.5,386.5C 213.558,386.392 212.725,386.059 212,385.5C 211.727,383.899 211.227,382.399 210.5,381C 212.066,380.392 213.4,379.558 214.5,378.5 Z"/></g>
<g><path style="opacity:0.004" fill="#fefffe" d="M 442.5,382.5 C 443.833,383.167 443.833,383.167 442.5,382.5 Z"/></g>
<g><path style="opacity:0.004" fill="#fefffe" d="M 290.5,387.5 C 291.833,388.167 291.833,388.167 290.5,387.5 Z"/></g>
<g><path style="opacity:0.805" fill="#030101" d="M 204.5,398.5 C 203.87,395.212 205.37,392.879 209,391.5C 217.862,396.68 221.862,404.347 221,414.5C 217.179,421.777 211.346,423.943 203.5,421C 198.918,417.606 197.418,413.106 199,407.5C 200.343,404.138 202.176,401.138 204.5,398.5 Z M 211.5,402.5 C 215.345,405.449 216.345,409.116 214.5,413.5C 211.04,416.377 207.873,416.044 205,412.5C 204.46,407.214 206.627,403.881 211.5,402.5 Z"/></g>
<g><path style="opacity:0.004" fill="#000000" d="M 204.5,398.5 C 203.833,397.167 203.833,397.167 204.5,398.5 Z"/></g>
<g><path style="opacity:0.004" fill="#fefffe" d="M 23.5,398.5 C 24.8333,399.167 24.8333,399.167 23.5,398.5 Z"/></g>
<g><path style="opacity:0.004" fill="#fefffe" d="M 195.5,405.5 C 196.833,406.167 196.833,406.167 195.5,405.5 Z"/></g>
<g><path style="opacity:0.004" fill="#000000" d="M 258.5,406.5 C 259.525,406.897 259.692,407.563 259,408.5C 258.536,407.906 258.369,407.239 258.5,406.5 Z"/></g>
<g><path style="opacity:0.686" fill="#040000" d="M 248.5,426.5 C 251.461,428.377 254.628,428.377 258,426.5C 261.736,428.443 262.236,430.943 259.5,434C 256.559,434.169 254.059,433.669 252,432.5C 249.09,435.309 246.923,434.809 245.5,431C 245.557,428.791 246.557,427.291 248.5,426.5 Z"/></g>
<g><path style="opacity:0.004" fill="#fefffe" d="M 278.5,426.5 C 279.833,427.167 279.833,427.167 278.5,426.5 Z"/></g>
<g><path style="opacity:0.004" fill="#fefffe" d="M 363.5,434.5 C 364.833,435.167 364.833,435.167 363.5,434.5 Z"/></g>
<g><path style="opacity:0.004" fill="#fefffe" d="M 256.5,436.5 C 257.833,437.167 257.833,437.167 256.5,436.5 Z"/></g>
<g><path style="opacity:0.004" fill="#fefffe" d="M 231.5,437.5 C 232.833,438.167 232.833,438.167 231.5,437.5 Z"/></g>
<g><path style="opacity:0.004" fill="#fefffe" d="M 389.5,439.5 C 390.833,440.167 390.833,440.167 389.5,439.5 Z"/></g>
<g><path style="opacity:0.004" fill="#fefffe" d="M 313.5,444.5 C 314.833,445.167 314.833,445.167 313.5,444.5 Z"/></g>
<g><path style="opacity:0.004" fill="#fefffe" d="M 366.5,456.5 C 367.833,457.167 367.833,457.167 366.5,456.5 Z"/></g>
<g><path style="opacity:0.004" fill="#fefffe" d="M 89.5,458.5 C 90.8333,459.167 90.8333,459.167 89.5,458.5 Z"/></g>
<g><path style="opacity:0.004" fill="#fefffe" d="M 206.5,461.5 C 207.833,462.167 207.833,462.167 206.5,461.5 Z"/></g>
<g><path style="opacity:0.004" fill="#fefffe" d="M 489.5,461.5 C 490.833,462.167 490.833,462.167 489.5,461.5 Z"/></g>
<g><path style="opacity:0.004" fill="#fefffe" d="M 269.5,463.5 C 270.833,464.167 270.833,464.167 269.5,463.5 Z"/></g>
<g><path style="opacity:0.004" fill="#fefffe" d="M 431.5,466.5 C 432.833,467.167 432.833,467.167 431.5,466.5 Z"/></g>
<g><path style="opacity:0.004" fill="#fefffe" d="M 323.5,470.5 C 324.833,471.167 324.833,471.167 323.5,470.5 Z"/></g>
<g><path style="opacity:0.004" fill="#fefffe" d="M 335.5,473.5 C 336.833,474.167 336.833,474.167 335.5,473.5 Z"/></g>
<g><path style="opacity:0.004" fill="#fefffe" d="M 419.5,474.5 C 420.833,475.167 420.833,475.167 419.5,474.5 Z"/></g>
<g><path style="opacity:0.004" fill="#fefffe" d="M 301.5,487.5 C 302.833,488.167 302.833,488.167 301.5,487.5 Z"/></g>
<g><path style="opacity:0.004" fill="#fefffe" d="M 479.5,492.5 C 480.833,493.167 480.833,493.167 479.5,492.5 Z"/></g>
<g><path style="opacity:0.004" fill="#fefffe" d="M 395.5,493.5 C 396.833,494.167 396.833,494.167 395.5,493.5 Z"/></g>
<g><path style="opacity:0.004" fill="#fefffe" d="M 169.5,497.5 C 170.833,498.167 170.833,498.167 169.5,497.5 Z"/></g>
</svg>
